HIERARCHY
ROOT Hips
{
	OFFSET 0.000000 0.000000 0.000000
	CHANNELS 6 Xposition Yposition Zposition Yrotation Xrotation Zrotation 
	JOINT LeftHip
	{
		OFFSET 0.094196 0.000343 -0.000038
		CHANNELS 3 Yrotation Xrotation Zrotation
		JOINT LeftKnee
		{
			OFFSET 0.000000 -0.468901 0.000041
			CHANNELS 3 Yrotation Xrotation Zrotation
			JOINT LeftAnkle
			{
				OFFSET 0.000000 -0.397674 0.000438
				CHANNELS 3 Yrotation Xrotation Zrotation
				JOINT LeftToe
				{
					OFFSET 0.000000 -0.090712 0.195501
					CHANNELS 3 Yrotation Xrotation Zrotation
					End Site
					{
						OFFSET 0.000000 0.000000 0.000000
					}
				}
			}
		}
	}
	JOINT RightHip
	{
		OFFSET -0.094196 0.000364 -0.000040
		CHANNELS 3 Yrotation Xrotation Zrotation
		JOINT RightKnee
		{
			OFFSET 0.000000 -0.468901 0.000041
			CHANNELS 3 Yrotation Xrotation Zrotation
			JOINT RightAnkle
			{
				OFFSET 0.000000 -0.397674 0.000438
				CHANNELS 3 Yrotation Xrotation Zrotation
				JOINT RightToe
				{
					OFFSET 0.000000 -0.090712 0.195501
					CHANNELS 3 Yrotation Xrotation Zrotation
					End Site
					{
						OFFSET 0.000000 0.000000 0.000000
					}
				}
			}
		}
	}
	JOINT Chest
	{
		OFFSET 0.000000 0.113860 -0.012651
		CHANNELS 3 Yrotation Xrotation Zrotation
		JOINT Chest3
		{
			OFFSET 0.000249 0.210437 -0.011343
			CHANNELS 3 Yrotation Xrotation Zrotation
			JOINT Chest4
			{
				OFFSET 0.000000 0.100637 -0.000145
				CHANNELS 3 Yrotation Xrotation Zrotation
				JOINT Neck
				{
					OFFSET 0.000000 0.138831 0.000000
					CHANNELS 3 Yrotation Xrotation Zrotation
					JOINT Head
					{
						OFFSET 0.000000 0.095420 0.000176
						CHANNELS 3 Yrotation Xrotation Zrotation
						End Site
						{
							OFFSET 0.000000 0.000000 0.000000
						}
					}
				}
				JOINT LeftCollar
				{
					OFFSET 0.029338 0.077908 0.000000
					CHANNELS 3 Yrotation Xrotation Zrotation
					JOINT LeftShoulder
					{
						OFFSET 0.140442 0.000000 0.000000
						CHANNELS 3 Yrotation Xrotation Zrotation
						JOINT LeftElbow
						{
							OFFSET 0.303173 0.000000 0.000000
							CHANNELS 3 Yrotation Xrotation Zrotation
							JOINT LeftWrist
							{
								OFFSET 0.261212 0.000000 0.000049
								CHANNELS 3 Yrotation Xrotation Zrotation
								End Site
								{
									OFFSET 0.000000 0.000000 0.000000
								}
							}
						}
					}
				}
				JOINT RightCollar
				{
					OFFSET -0.029338 0.077908 0.000000
					CHANNELS 3 Yrotation Xrotation Zrotation
					JOINT RightShoulder
					{
						OFFSET -0.140442 0.000000 0.000000
						CHANNELS 3 Yrotation Xrotation Zrotation
						JOINT RightElbow
						{
							OFFSET -0.303173 0.000000 0.000000
							CHANNELS 3 Yrotation Xrotation Zrotation
							JOINT RightWrist
							{
								OFFSET -0.261212 0.000000 0.000049
								CHANNELS 3 Yrotation Xrotation Zrotation
								End Site
								{
									OFFSET 0.000000 0.000000 0.000000
								}
							}
						}
					}
				}
			}
		}
	}
}
MOTION
Frames: 8
Frame Time: 0.016667
0.000000 0.000000 0.000000 -164.296912 3.449755 0.091849 2.214391 -0.622525 0.145431 -1.366136 1.844074 -0.682938 15.032896 -4.686750 -0.019386 0.000000 -0.000000 0.000000 -2.119888 -5.538546 -5.361842 2.659263 9.281668 -0.056757 -7.313624 -5.453246 5.285298 0.001413 0.207791 -0.066399 -1.059800 1.473411 0.468745 -0.985222 -4.522816 0.419195 -0.356732 6.322314 0.123012 -19.669240 15.138336 2.924335 -37.603770 -4.609032 12.109536 -3.698942 7.321113 -7.255011 -20.131077 -19.113359 -77.143381 -14.379243 30.010577 -0.853123 -2.565971 2.489841 4.372744 2.517613 7.119018 11.303791 10.112063 -15.526079 71.409809 3.104390 -22.589719 -4.532516 -1.804432 -2.018232 3.438511 
0.000000 0.000000 0.000000 -164.572213 3.494270 0.004215 2.409412 -0.674199 -0.064185 -1.460316 1.828257 -0.736831 15.198819 -4.755472 0.269590 0.000000 -0.000000 0.000000 -2.462990 -6.031287 -5.485084 2.530115 9.892171 0.055632 -7.406338 -5.220152 5.580138 0.000000 -0.000000 0.000000 -1.113750 1.525933 0.513172 -1.037288 -4.476170 0.458877 -0.375013 6.339660 0.136228 -19.608361 15.079985 2.916592 -37.503447 -4.732923 12.097100 -3.752676 7.334165 -7.267259 -20.119826 -19.110823 -77.009710 -13.895377 28.964095 -0.756599 -2.518863 2.500551 4.337757 2.465405 7.104624 11.357531 10.261507 -15.638375 71.505146 3.917439 -25.860242 -4.295831 -1.880047 -2.416262 3.248092 
0.000000 0.000000 0.000000 -164.804625 3.526421 -0.152348 2.592015 -0.694346 -0.191505 -1.512193 1.761870 -0.740432 15.296331 -4.770956 0.504410 0.000000 -0.000000 0.000000 -2.693565 -6.427051 -5.467772 1.992368 10.382072 0.116656 -7.501121 -4.867313 5.726037 -0.004131 -0.794458 0.283895 -1.143690 1.583235 0.580266 -1.070097 -4.425264 0.518731 -0.385326 6.358573 0.157757 -19.575086 15.046493 2.913156 -37.449236 -4.803230 12.092194 -3.822639 7.362091 -7.265296 -20.245944 -19.128390 -76.807518 -13.134468 27.667082 -0.565693 -2.469944 2.520068 4.196660 2.437520 7.107572 11.399487 10.554359 -15.650867 71.550608 4.679796 -28.159342 -4.168997 -1.965138 -2.610297 2.956730 
0.000000 0.000000 0.000000 -165.000261 3.551736 -0.354617 2.778337 -0.702112 -0.260981 -1.536200 1.674698 -0.708100 15.328734 -4.753589 0.696452 0.000000 -0.000000 0.000000 -2.879944 -6.746352 -5.353614 1.206334 10.766194 0.152207 -7.632696 -4.420494 5.766642 -0.013554 -1.890418 0.695830 -1.161307 1.641051 0.661691 -1.093278 -4.373889 0.591329 -0.391570 6.377638 0.184445 -19.557121 15.032368 2.914185 -37.419950 -4.833122 12.093469 -3.897079 7.394852 -7.250700 -20.424515 -19.147696 -76.570220 -12.168839 26.154094 -0.321994 -2.406313 2.554105 3.990354 2.424526 7.109390 11.428777 10.922555 -15.600290 71.565038 5.380111 -29.620057 -4.098480 -2.066061 -2.674217 2.593877 
0.000000 0.000000 0.000000 -165.189893 3.583554 -0.555831 2.964196 -0.701369 -0.312270 -1.516143 1.561465 -0.676641 15.313353 -4.719043 0.870263 0.000000 -0.000000 0.000000 -3.032363 -7.023026 -5.226083 0.451691 11.073095 0.193311 -7.848547 -3.982488 5.773600 -0.024478 -2.764095 1.014580 -1.155362 1.685111 0.734715 -1.094740 -4.334719 0.656391 -0.389883 6.392170 0.209031 -19.542943 15.038953 2.922981 -37.395165 -4.822224 12.103315 -3.958953 7.405036 -7.219552 -20.506347 -19.144232 -76.390002 -11.089866 24.525522 -0.013243 -2.298692 2.635382 3.771815 2.409599 7.091868 11.445835 11.211176 -15.524219 71.577936 5.992561 -30.426445 -3.999709 -2.202087 -2.681113 2.311547 
0.000000 0.000000 0.000000 -165.381705 3.631475 -0.746633 3.144084 -0.693839 -0.353073 -1.419903 1.409803 -0.653321 15.232583 -4.663047 1.028816 0.000000 -0.000000 0.000000 -3.153637 -7.265195 -5.100925 -0.236412 11.300729 0.269951 -8.213768 -3.575852 5.763466 -0.029452 -3.191540 1.099604 -1.115094 1.705402 0.794240 -1.064435 -4.316653 0.709368 -0.376610 6.398870 0.230130 -19.532271 15.074962 2.941778 -37.372985 -4.754231 12.122964 -4.008734 7.376258 -7.162323 -20.444121 -19.111984 -76.324886 -9.873041 22.800879 0.394626 -2.132646 2.819279 3.537892 2.382217 7.041250 11.442433 11.364231 -15.424970 71.607393 6.471855 -30.611976 -3.830730 -2.423235 -2.625991 2.191177 
0.000000 0.000000 0.000000 -165.567611 3.685974 -0.936477 3.323587 -0.677728 -0.375787 -1.279841 1.231410 -0.631548 15.104239 -4.589292 1.169028 0.000000 -0.000000 0.000000 -3.240149 -7.465223 -4.963590 -0.892388 11.451151 0.359897 -8.664597 -3.181022 5.720540 -0.031177 -3.407673 1.070360 -1.051494 1.711486 0.845497 -1.012614 -4.311190 0.754947 -0.355461 6.400905 0.249165 -19.525272 15.131712 2.968286 -37.355027 -4.645430 12.151000 -4.046032 7.324984 -7.088427 -20.285732 -19.058833 -76.317456 -8.554443 20.954736 0.853463 -1.919189 3.053925 3.303167 2.352773 6.971169 11.426903 11.437846 -15.300849 71.635720 6.853655 -30.145472 -3.614212 -2.690487 -2.515920 2.156786 
0.000000 0.000000 0.000000 -165.753917 3.731846 -1.106836 3.515105 -0.651429 -0.397086 -1.176158 1.057548 -0.626810 14.998471 -4.525922 1.306453 0.000000 -0.000000 0.000000 -3.291561 -7.634450 -4.851212 -1.339478 11.558101 0.418654 -9.052382 -2.832318 5.677511 -0.033647 -3.581705 1.076120 -0.986073 1.718445 0.881245 -0.957751 -4.304941 0.786703 -0.333653 6.403278 0.263093 -19.511131 15.184437 2.999010 -37.326244 -4.544377 12.185902 -4.052494 7.272961 -7.022344 -20.024705 -18.982612 -76.287546 -7.301984 19.025368 1.272883 -1.671562 3.206272 3.143237 2.335844 6.904602 11.424619 11.445235 -15.183398 71.638802 7.233664 -29.115664 -3.365314 -2.885922 -2.441847 2.122089 
